<svg width="48" height="47" viewBox="0 0 48 47" fill="none" xmlns="http://www.w3.org/2000/svg">
<path fill-rule="evenodd" clip-rule="evenodd" d="M10.296 2.13881C4.755 8.48481 0.5 19.5668 0.5 27.6548C0.5 35.1238 5.966 42.0948 14.455 45.4518C20.233 47.7358 30.185 47.1078 36.151 44.0828C44.771 39.7118 48.234 33.3068 47.117 23.7998C46.321 17.0268 43.886 10.8248 39.683 4.86281L36.377 0.171814L33.851 2.53781C32.462 3.83981 30.593 6.14281 29.697 7.65481C28.346 9.93781 27.377 10.4048 24 10.4048C20.623 10.4048 19.654 9.93781 18.303 7.65481C17.407 6.14281 15.586 3.88581 14.256 2.63881C11.958 0.486814 11.761 0.461814 10.296 2.13881ZM11.5 27.4638C11.5 32.7368 11.125 32.9258 7.25 29.5978C5.009 27.6728 5.048 26.8568 7.5 24.4048C10.605 21.2998 11.5 21.9848 11.5 27.4638ZM18.935 24.3328C21.128 26.7558 20.287 29.7248 16.981 31.2318C14.521 32.3528 14.5 32.3208 14.5 27.3838C14.5 21.9108 15.882 20.9598 18.935 24.3328ZM33.5 27.3838C33.5 32.3208 33.479 32.3528 31.019 31.2318C27.713 29.7248 26.872 26.7558 29.065 24.3328C32.118 20.9598 33.5 21.9108 33.5 27.3838ZM40.5 24.4048C42.952 26.8568 42.991 27.6728 40.75 29.5978C36.875 32.9258 36.5 32.7368 36.5 27.4638C36.5 21.9848 37.395 21.2998 40.5 24.4048Z" fill="#FF21FB" fill-opacity="0.5"/>
</svg>
