<svg width="47" height="47" viewBox="0 0 47 47" fill="none" xmlns="http://www.w3.org/2000/svg">
<path fill-rule="evenodd" clip-rule="evenodd" d="M9.796 2.13881C4.255 8.48481 0 19.5668 0 27.6548C0 35.1238 5.466 42.0948 13.955 45.4518C19.733 47.7358 29.685 47.1078 35.651 44.0828C44.271 39.7118 47.734 33.3068 46.617 23.7998C45.821 17.0268 43.386 10.8248 39.183 4.86281L35.877 0.171814L33.351 2.53781C31.962 3.83981 30.093 6.14281 29.197 7.65481C27.846 9.93781 26.877 10.4048 23.5 10.4048C20.123 10.4048 19.154 9.93781 17.803 7.65481C16.907 6.14281 15.086 3.88581 13.756 2.63881C11.458 0.486814 11.261 0.461814 9.796 2.13881ZM11 27.4638C11 32.7368 10.625 32.9258 6.75 29.5978C4.509 27.6728 4.548 26.8568 7 24.4048C10.105 21.2998 11 21.9848 11 27.4638ZM18.435 24.3328C20.628 26.7558 19.787 29.7248 16.481 31.2318C14.021 32.3528 14 32.3208 14 27.3838C14 21.9108 15.382 20.9598 18.435 24.3328ZM33 27.3838C33 32.3208 32.979 32.3528 30.519 31.2318C27.213 29.7248 26.372 26.7558 28.565 24.3328C31.618 20.9598 33 21.9108 33 27.3838ZM40 24.4048C42.452 26.8568 42.491 27.6728 40.25 29.5978C36.375 32.9258 36 32.7368 36 27.4638C36 21.9848 36.895 21.2998 40 24.4048Z" fill="black"/>
</svg>
