<svg width="92" height="81" viewBox="0 0 92 81" fill="none" xmlns="http://www.w3.org/2000/svg">
<path fill-rule="evenodd" clip-rule="evenodd" d="M25.0381 2.54019C21.9523 4.9664 19.5776 9.9139 19.5776 13.9127C19.5776 21.6548 27.0395 29.0325 33.4466 27.6253C37.2127 26.7984 41.9156 21.3646 42.7593 16.8638C44.9667 5.0991 33.5328 -4.1423 25.0381 2.54019ZM54.8468 2.46097C46.7869 8.8018 47.7227 22.0658 56.5402 26.4676C67.3077 31.8429 76.6491 17.6154 70.23 5.61999C67.3572 0.252616 59.6626 -1.3269 54.8468 2.46097ZM6.32257 26.228C-3.87248 34.2473 1.1889 51.8884 13.6854 51.8884C17.7218 51.8884 23.4734 46.3933 23.6883 42.3321C24.131 33.9691 22.2128 29.0958 17.3009 26.1012C13.2051 23.6037 9.60638 23.6453 6.32257 26.228ZM74.7557 25.92C71.5956 27.8768 68.1019 34.4147 68.1019 38.3689C68.1019 42.3677 70.4766 47.3152 73.5624 49.7414C79.0674 54.072 86.3876 51.6913 89.9041 44.4285C95.6419 32.5757 84.9992 19.5722 74.7557 25.92ZM38.5853 32.7045C36.7394 34.1582 34.0042 38.0501 32.3167 41.621C30.4164 45.6426 28.3565 48.463 26.678 49.3394C14.9064 55.4901 13.1219 71.4674 23.4378 78.3589C27.9585 81.3793 35.7006 81.408 41.8324 78.4292L46.3155 76.2505L50.7985 78.4292C56.6145 81.2545 64.4081 81.3416 68.8535 78.6312C78.8971 72.5082 78.2672 57.1954 67.6979 50.5148C64.3457 48.3956 62.6187 46.2893 60.3667 41.5745C56.4174 33.3085 52.5306 30.099 46.4868 30.1129C43.0099 30.1208 41.0452 30.7655 38.5853 32.7045Z" fill="black"/>
</svg>
